<svg width="47.99999999999999" height="47.99999999999999" xmlns="http://www.w3.org/2000/svg">

 <g>
  <title>background</title>
  <rect fill="none" id="canvas_background" height="402" width="582" y="-1" x="-1"/>
 </g>
 <g>
  <title>Layer 1</title>
  <path fill="#2d82fa" id="svg_1" d="m38,4l-28,0c-2.21,0 -4,1.79 -4,4l0,28c0,2.21 1.79,4 4,4l8,0l6,6l6,-6l8,0c2.21,0 4,-1.79 4,-4l0,-28c0,-2.21 -1.79,-4 -4,-4zm-14,6.6c2.98,0 5.4,2.42 5.4,5.4c0,2.98 -2.42,5.4 -5.4,5.4c-2.98,0 -5.4,-2.42 -5.4,-5.4c0,-2.98 2.42,-5.4 5.4,-5.4zm12,21.4l-24,0l0,-1.8c0,-4 8,-6.2 12,-6.2s12,2.2 12,6.2l0,1.8z"/>
 </g>
</svg>